HIERARCHY
ROOT hip
{
  OFFSET 0 0 0
  CHANNELS 6 Xposition Yposition Zposition Zrotation Yrotation Xrotation
  JOINT abdomen
  {
    OFFSET 0 20.6881 -0.73152
    CHANNELS 3 Zrotation Xrotation Yrotation
    JOINT chest
    {
      OFFSET 0 11.7043 -0.48768
      CHANNELS 3 Zrotation Xrotation Yrotation
      JOINT neck
      {
        OFFSET 0 22.1894 -2.19456
        CHANNELS 3 Zrotation Xrotation Yrotation
        JOINT head
        {
          OFFSET -0.24384 7.07133 1.2192
          CHANNELS 3 Zrotation Xrotation Yrotation
          JOINT leftEye
          {
            OFFSET 4.14528 8.04674 8.04672
            CHANNELS 3 Zrotation Xrotation Yrotation
            End Site
            {
              OFFSET 1 0 0
            }
          }
          JOINT rightEye
          {
            OFFSET -3.6576 8.04674 8.04672
            CHANNELS 3 Zrotation Xrotation Yrotation
            End Site
            {
              OFFSET 1 0 0
            }
          }
        }
      }
      JOINT rCollar
      {
        OFFSET -2.68224 19.2634 -4.8768
        CHANNELS 3 Zrotation Xrotation Yrotation
        JOINT rShldr
        {
          OFFSET -8.77824 -1.95073 1.46304
          CHANNELS 3 Zrotation Xrotation Yrotation
          JOINT rForeArm
          {
            OFFSET -28.1742 -1.7115 0.48768
            CHANNELS 3 Zrotation Xrotation Yrotation
            JOINT rHand
            {
              OFFSET -22.5879 0.773209 7.07136
              CHANNELS 3 Zrotation Xrotation Yrotation
              JOINT rThumb1
              {
                OFFSET -1.2192 -0.487915 3.41376
                CHANNELS 3 Zrotation Xrotation Yrotation
                JOINT rThumb2
                {
                  OFFSET -3.37035 -0.52449 3.41376
                  CHANNELS 3 Zrotation Xrotation Yrotation
                  End Site
                  {
                    OFFSET -1.78271 -1.18214 1.43049
                  }
                }
              }
              JOINT rIndex1
              {
                OFFSET -7.75947 0.938293 5.60832
                CHANNELS 3 Zrotation Xrotation Yrotation
                JOINT rIndex2
                {
                  OFFSET -2.54057 -0.884171 1.56538
                  CHANNELS 3 Zrotation Xrotation Yrotation
                  End Site
                  {
                    OFFSET -1.62519 -0.234802 1.16502
                  }
                }
              }
              JOINT rMid1
              {
                OFFSET -8.24714 1.18213 3.41376
                CHANNELS 3 Zrotation Xrotation Yrotation
                JOINT rMid2
                {
                  OFFSET -3.10165 -0.590103 1.0647
                  CHANNELS 3 Zrotation Xrotation Yrotation
                  End Site
                  {
                    OFFSET -2.48547 -0.328903 0.83742
                  }
                }
              }
              JOINT rRing1
              {
                OFFSET -8.82822 0.546677 1.51678
                CHANNELS 3 Zrotation Xrotation Yrotation
                JOINT rRing2
                {
                  OFFSET -2.60934 -0.819778 -0.0198488
                  CHANNELS 3 Zrotation Xrotation Yrotation
                  End Site
                  {
                    OFFSET -2.33842 -0.294052 0.168128
                  }
                }
              }
              JOINT rPinky1
              {
                OFFSET -8.27202 -0.0477905 -0.4584
                CHANNELS 3 Zrotation Xrotation Yrotation
                JOINT rPinky2
                {
                  OFFSET -1.82734 -0.647385 -0.700984
                  CHANNELS 3 Zrotation Xrotation Yrotation
                  End Site
                  {
                    OFFSET -1.69225 -0.51767 -0.607171
                  }
                }
              }
            }
          }
        }
      }
      JOINT lCollar
      {
        OFFSET 2.68224 19.2634 -4.8768
        CHANNELS 3 Zrotation Xrotation Yrotation
        JOINT lShldr
        {
          OFFSET 8.77824 -1.95073 1.46304
          CHANNELS 3 Zrotation Xrotation Yrotation
          JOINT lForeArm
          {
            OFFSET 28.1742 -1.7115 0.48768
            CHANNELS 3 Zrotation Xrotation Yrotation
            JOINT lHand
            {
              OFFSET 22.5879 0.773209 7.07136
              CHANNELS 3 Zrotation Xrotation Yrotation
              JOINT lThumb1
              {
                OFFSET 1.2192 -0.487915 3.41376
                CHANNELS 3 Zrotation Xrotation Yrotation
                JOINT lThumb2
                {
                  OFFSET 3.37035 -0.52449 3.41376
                  CHANNELS 3 Zrotation Xrotation Yrotation
                  End Site
                  {
                    OFFSET 1.78271 -1.18214 1.43049
                  }
                }
              }
              JOINT lIndex1
              {
                OFFSET 7.75947 0.938293 5.60832
                CHANNELS 3 Zrotation Xrotation Yrotation
                JOINT lIndex2
                {
                  OFFSET 2.54057 -0.884171 1.56538
                  CHANNELS 3 Zrotation Xrotation Yrotation
                  End Site
                  {
                    OFFSET 1.62519 -0.234802 1.16502
                  }
                }
              }
              JOINT lMid1
              {
                OFFSET 8.24714 1.18213 3.41376
                CHANNELS 3 Zrotation Xrotation Yrotation
                JOINT lMid2
                {
                  OFFSET 3.10165 -0.590103 1.0647
                  CHANNELS 3 Zrotation Xrotation Yrotation
                  End Site
                  {
                    OFFSET 2.48547 -0.328903 0.83742
                  }
                }
              }
              JOINT lRing1
              {
                OFFSET 8.82822 0.546677 1.51678
                CHANNELS 3 Zrotation Xrotation Yrotation
                JOINT lRing2
                {
                  OFFSET 2.60934 -0.819778 -0.0198488
                  CHANNELS 3 Zrotation Xrotation Yrotation
                  End Site
                  {
                    OFFSET 2.33842 -0.294052 0.168128
                  }
                }
              }
              JOINT lPinky1
              {
                OFFSET 8.27202 -0.0477905 -0.4584
                CHANNELS 3 Zrotation Xrotation Yrotation
                JOINT lPinky2
                {
                  OFFSET 1.82734 -0.647385 -0.700984
                  CHANNELS 3 Zrotation Xrotation Yrotation
                  End Site
                  {
                    OFFSET 1.69225 -0.51767 -0.607171
                  }
                }
              }
            }
          }
        }
      }
    }
  }
  JOINT rButtock
  {
    OFFSET -8.77824 4.35084 1.2192
    CHANNELS 3 Zrotation Xrotation Yrotation
    JOINT rThigh
    {
      OFFSET 0 -1.70687 -2.19456
      CHANNELS 3 Zrotation Xrotation Yrotation
      JOINT rShin
      {
        OFFSET 0 -36.8199 0.73152
        CHANNELS 3 Zrotation Xrotation Yrotation
        JOINT rFoot
        {
          OFFSET 0.73152 -45.1104 -5.12064
          CHANNELS 3 Zrotation Xrotation Yrotation
          End Site
          {
            OFFSET -1.1221 -3.69964 12.103
          }
        }
      }
    }
  }
  JOINT lButtock
  {
    OFFSET 8.77824 4.35084 1.2192
    CHANNELS 3 Zrotation Xrotation Yrotation
    JOINT lThigh
    {
      OFFSET 0 -1.70687 -2.19456
      CHANNELS 3 Zrotation Xrotation Yrotation
      JOINT lShin
      {
        OFFSET 0 -36.8199 0.73152
        CHANNELS 3 Zrotation Xrotation Yrotation
        JOINT lFoot
        {
          OFFSET -0.73152 -45.1104 -5.12064
          CHANNELS 3 Zrotation Xrotation Yrotation
          End Site
          {
            OFFSET 1.1221 -3.69964 12.103
          }
        }
      }
    }
  }
}
MOTION
Frames:	8
Frame Time:	0.03333
0.0 0.0 0.0 0.0 0.0 0.0 0.0 0.0 0.0 0.0 0.0 0.0 0.0 0.0 0.0 0.0 0.0 0.0 0.0 0.0 0.0 0.0 0.0 0.0 0.0 0.0 0.0 0.0 0.0 0.0 0.0 0.0 0.0 0.0 0.0 0.0 0.0 0.0 0.0 0.0 0.0 0.0 0.0 0.0 0.0 0.0 0.0 0.0 0.0 0.0 0.0 0.0 0.0 0.0 0.0 0.0 0.0 0.0 0.0 0.0 0.0 0.0 0.0 0.0 0.0 0.0 0.0 0.0 0.0 0.0 0.0 0.0 0.0 0.0 0.0 0.0 0.0 0.0 0.0 0.0 0.0 0.0 0.0 0.0 0.0 0.0 0.0 0.0 0.0 0.0 0.0 0.0 0.0 0.0 0.0 0.0 0.0 0.0 0.0 0.0 0.0 0.0 0.0 0.0 0.0 0.0 0.0 0.0 0.0 0.0 0.0 0.0 0.0 0.0 0.0 0.0 0.0 0.0 0.0 0.0 0.0 0.0 0.0 0.0 0.0 0.0 0.0 0.0 0.0 0.0 0.0 0.0
-0.0364 46.4825 1.225 -167.743656 11.62324 -169.006182 6.489278 6.487223 0.0 2.60685 -7.922464 6.153986 -7.038579 29.808117 -123.278901 30.146843 35.066221 134.780007 0.003116 -0.0 -0.000513 -0.002558 -0.0 0.000191 0.118503 -0.713959 -0.158441 67.945501 13.138284 -38.487155 -9.158813 8.879442 110.552406 -9.71234 -46.441994 -11.092372 -85.829097 38.630593 47.955689 -150.049473 -30.649259 81.174523 24.076885 -42.306153 -5.556582 -84.349933 49.02168 69.631931 -22.005492 41.040482 17.008992 -7.196256 26.207124 6.094427 0.000674 -0.06075 -0.019763 -148.220252 -76.781288 -171.093 17.60377 61.627864 12.867815 1.599304 0.27184 -0.518349 -0.163119 -0.990061 0.218391 -74.672796 -24.351153 -81.753668 0.074539 1.026203 -16.597999 25.681206 77.228735 -28.040201 171.653045 -9.336478 -89.949289 -144.661788 -47.331807 -97.692042 35.098348 35.161163 -26.611561 60.396688 48.842884 -42.42299 39.290016 53.365652 -32.878405 -80.712203 -77.891307 -52.07556 -0.006109 1.77141 -0.556297 -10.363738 -57.327349 7.83383 -17.608563 61.627473 -12.86259 -8.837445 22.910626 -4.926737 179.984477 75.751384 0.010621 110.680732 72.728887 -24.658875 -36.683901 0.287056 89.300847 -32.075389 -1.333031 -26.100351 -2.9e-05 0.001501 -0.0 94.848232 -58.667539 180.0 89.456123 -9.77793 -11.757126 -152.455255 -10.284521 75.82233
0.1275 46.819300000000005 2.1296 -169.054511 12.063385 -169.691868 6.756635 3.94908 -115.577042 3.757669 2.567671 121.522555 -10.205062 22.159385 -72.446253 39.033741 6.929704 90.220015 -0.001399 -0.0 0.000249 0.004279 -0.0 -0.00044 -9.652699 34.835983 11.199828 -97.722663 -19.671832 -174.086199 175.72311 4.468267 -72.778482 -14.226035 -23.303146 -6.145401 -173.770735 -11.439852 89.891926 -171.415018 -8.566629 91.413503 10.211135 -18.050678 -4.565438 2.818115 14.762902 2.477391 0.541461 -1.589721 -0.296851 -7.313548 26.195621 6.029733 -145.121831 1.122102 -179.479603 -156.414495 12.416279 179.301154 -146.214409 15.429493 -142.733615 -162.474543 55.853029 -146.668425 0.000139 5.2e-05 0.000585 104.065719 18.038534 -95.368655 100.285273 -57.630911 121.985659 -10.177332 1.224159 -17.885484 178.92741 -16.453778 -89.421297 172.430077 -8.895217 -94.72627 50.387804 40.82486 -40.025508 89.460916 49.784761 -66.210279 161.154683 -8.160476 -143.464994 163.578122 -5.629375 -143.050776 -0.004667 1.770354 -0.556819 -9.560759 -62.554717 9.188353 1.148804 -2.914149 1.067856 8.643941 -23.965254 10.078747 0.0 0.00129 -0.001824 -17.676762 5.29639 -106.153356 -39.992529 -8.651848 118.61579 41.470746 -60.633087 -29.321563 -6.6e-05 -0.000185 8.5e-05 93.472782 -58.447866 -86.623874 -57.548259 -88.836425 24.548447 1.374382 26.585057 87.711443
0.41529999999999995 47.3002 3.3689999999999998 -170.224002 12.115148 -170.400483 3.133456 8.149662 -0.315263 3.03417 -7.795766 6.674681 10.285486 27.723556 126.770467 -33.9379 25.312167 -100.77722 -0.002713 0.0 -0.002275 0.003161 0.0 0.001689 0.162958 -0.990139 -0.217784 159.572019 56.627565 -96.610229 -170.813502 65.738437 32.92111 -154.812071 20.783562 134.948327 -7.758245 7.439209 1.682123 0.089923 1.104262 4.864196 -162.638693 -37.465284 122.648132 -169.810822 -35.326283 117.398754 -160.672496 -6.667923 143.245321 -144.931505 36.103675 131.775355 -145.119565 0.185266 -179.187005 -154.16938 -12.523896 -177.505248 -153.762414 43.513155 -148.652506 16.661646 45.129503 6.338508 14.147504 43.06181 -15.995653 -49.656726 -54.573239 -91.992907 109.373654 68.669308 -67.535238 -41.994941 -49.196802 -44.711581 14.735876 13.585409 -3.967155 128.210103 -27.80431 -107.906924 152.103544 -18.557113 -121.367637 30.319685 49.375523 -17.918223 -3.775441 -11.55941 1.813671 42.106778 58.549832 -36.100973 72.35252 72.97306 -90.219034 65.361922 83.072397 -74.171984 145.173711 12.067084 141.823869 127.056206 -29.103321 124.535945 -0.003002 -0.001459 -0.003002 -19.62307 4.929325 0.0 -6.067462 45.077679 -39.851474 149.718578 -9.932797 -5.278775 0.001415 0.001249 0.001415 89.408366 -59.620895 -90.510406 -69.128986 -75.765032 173.479153 178.551455 -66.947192 56.836389
0.9201000000000001 47.8784 5.1758 -170.892853 11.615237 -170.891914 3.232829 8.6694 -20.54226 4.495905 -6.469964 26.704824 11.319122 22.892645 97.848937 -36.538414 8.040064 -77.429546 0.00287 0.0 0.003319 0.001846 -0.0 -0.003249 -14.106597 42.998279 15.952641 86.602183 -86.699012 7.126223 -93.481917 85.86652 -156.516404 -11.34848 -34.259378 -8.539968 6.667799 -6.659234 -0.643002 31.856543 -64.492751 -23.242049 -90.225629 41.07222 75.796605 -67.13119 52.75058 46.504313 -0.571418 1.648269 0.322406 -161.234035 1.341008 142.604588 -145.098881 -1.521726 -178.651431 12.258755 44.697031 -3.859833 -116.537394 -37.225858 -114.500033 -159.636558 52.819925 -147.603319 129.706305 55.101969 -133.552499 69.886137 -50.547372 35.980283 1.352519 53.1156 49.396573 -98.538418 -60.302137 -98.332555 94.792105 37.829528 -54.283692 46.174169 -4.147054 -42.33935 57.117572 42.210914 -46.04011 -3.645562 4.241119 2.501084 159.366239 -2.685257 -142.597662 153.94161 19.916156 -138.339445 -0.00588 0.876358 -0.274279 -9.683518 7.246441 -0.883105 157.78033 58.854081 150.666796 7.413573 -18.937774 9.218921 -0.000214 -0.000653 0.000275 -18.881169 1.2051 -93.518896 -48.170045 -1.789493 102.66946 126.595061 -53.102333 31.284288 179.999432 75.750295 -0.0 -150.809632 -7.996256 5.071647 -4.779164 81.634683 -92.043046 134.764299 -36.984344 -122.162279
1.7208999999999999 48.5128 7.4498 -171.528825 11.601613 -171.13619 1.532315 9.499092 0.0 2.567969 -7.785557 6.116795 -10.393435 23.423859 -77.955245 41.310764 9.715614 93.582316 0.000499 -0.0 -0.001814 0.001124 0.0 0.003796 -13.743717 42.4316 15.568944 -98.849466 -10.880065 175.286221 3.483978 -9.254889 -140.316716 -155.149439 21.113795 134.806336 83.254188 -50.258345 33.615545 -137.53589 16.707304 102.168006 -151.352037 -17.158448 121.133793 8.696405 5.20086 -9.067266 12.027795 -37.299463 -3.218191 -170.234906 -25.695942 144.262077 -145.099885 -1.521621 -178.649008 12.215419 36.613525 -4.850701 -8.191453 -17.576295 -7.727481 -140.113196 -7.826205 -137.85395 149.90558 22.42161 -154.9748 79.067544 -41.004274 70.828771 23.581617 -1.97879 43.524738 -35.305114 -44.555523 -35.795408 7.757632 7.439461 -1.682176 142.175754 -47.512916 -115.052787 179.420826 -58.426563 -117.044539 60.517568 56.365073 -48.265121 160.937577 -7.488222 -143.367571 34.797795 54.91487 -29.485071 -0.000943 0.022978 -0.005061 156.572728 -37.364687 -176.284788 8.189707 -17.575762 7.730962 150.889169 25.323755 146.493747 -0.0 0.001102 0.000269 -19.296299 -3.225203 -86.208475 -67.593685 5.085066 -91.107317 65.32875 -1.959411 159.631199 179.999576 75.750293 0.000438 -151.262803 -7.67493 -103.688615 -81.183045 -5.364879 -172.311974 -32.527451 74.996917 -48.990273
2.8385000000000002 49.2375 9.9979 -172.506152 11.891241 -171.706379 -0.072802 5.756947 176.97708 -2.677265 2.898403 -170.950267 -10.031449 21.124698 -63.252663 40.435795 -0.140676 81.915827 0.000782 0.0 0.000578 0.000782 0.0 0.000578 0.041685 -0.252337 -0.056525 -104.336623 -11.05107 -145.974509 1.367414 10.497394 -140.060023 -156.592819 18.846291 136.003871 93.028358 -51.083602 40.501027 -88.801991 38.094219 48.912479 -173.764118 -52.872808 119.82317 -60.602222 56.672309 47.892807 -125.643749 49.840369 115.274963 -167.79023 -19.080153 143.998522 -145.100342 -1.521851 -178.651672 11.684292 20.323245 -6.649717 -1.205325 -3.046919 -1.11772 -80.574403 -54.506144 -80.236133 150.168778 21.535174 -155.275099 9.763894 12.164391 42.337706 -5.17025 -40.232394 55.999917 -120.24863 -56.409886 -116.680789 -71.831155 -48.263862 -25.791563 29.674392 7.562465 7.573897 -25.696372 -44.6924 5.230598 -9.020585 10.320315 0.785225 -21.548573 -58.001223 -0.00255 56.196779 62.234186 -49.257099 145.098878 -1.520001 178.64792 155.410013 1.359421 179.394119 146.208077 15.406153 142.729423 -16.873011 43.805415 -6.042015 0.006186 -0.001031 0.006186 -20.371506 -8.276777 -3.477531 -24.98077 72.204123 -113.83502 -103.548611 79.894412 -147.752447 -0.004211 -0.000278 -0.002106 70.253915 -63.773771 132.924666 77.912808 13.173154 32.016029 -140.462986 -5.201338 111.493051
4.3685 50.1416 12.5552 -173.969362 11.941332 -173.010628 -1.002099 11.976111 -25.247376 4.301167 -6.391206 31.495734 11.268237 24.599649 103.104933 -38.977202 12.509016 -81.896625 -0.001739 0.0 -0.005017 -0.001194 -0.0 0.000607 0.07079 -0.427834 -0.09472 58.765998 -1.918713 -33.276967 77.482583 45.994113 57.76705 -29.087406 22.946502 9.146317 -11.582821 10.885245 2.851631 -160.785163 -64.292705 107.652203 -157.327001 -28.217817 122.490077 83.001573 -69.106449 30.170394 23.904116 -61.333775 1.399707 -163.766573 -5.697317 143.331219 0.000113 -0.01833 -0.007008 10.329045 0.039691 -0.059843 -124.852061 -29.040405 -122.623714 -147.344897 13.453815 -142.45468 155.548284 -3.804206 -161.900173 -95.303852 46.500224 86.015074 -95.077487 -51.194532 -49.662372 -165.11097 -3.870784 -155.719401 103.200072 36.332105 -60.111512 -75.198773 -48.108508 -36.779001 173.384701 -52.451249 -119.984369 -11.27842 6.683228 7.973844 153.321526 13.628927 -138.861899 18.192967 42.136388 -14.865916 145.121902 1.975065 179.749585 -11.786273 52.998145 2.67501 -12.2527 41.42509 -10.277814 76.544989 -54.586469 75.489974 179.998325 75.749752 0.001146 149.053335 55.641239 -50.710591 -83.37238 3.519255 -90.003446 121.849382 -7.25329 177.138183 -179.996518 75.749752 -0.002865 -156.956629 0.535607 0.256363 9.232631 60.64171 -33.645515 58.820076 22.340032 -18.352
